<?xml version="1.0" encoding="UTF-8" standalone="no"?>
<svg xmlns:sketch="http://www.bohemiancoding.com/sketch/ns" xmlns:rdf="http://www.w3.org/1999/02/22-rdf-syntax-ns#" xmlns="http://www.w3.org/2000/svg" height="100" width="960" version="1.1" xmlns:cc="http://creativecommons.org/ns#" viewBox="0 0 960.00003 99.999997" xmlns:dc="http://purl.org/dc/elements/1.1/">
 <g transform="translate(0 -952.36)">
  <g transform="translate(-164.64 137.65)">
   <g transform="matrix(.14571 0 0 .14571 692.79 808.59)">
    <g transform="translate(41.993 37.053)">
     <polygon points="490 408.8 482 403.8 482 264.8 482 264.8 486 262.3 490 264.8"/>
     <polygon points="486 262.3 482 264.8 361 194.8 361 194.8 361 185.8 486 257.8"/>
     <polygon points="361 194.8 240.5 264.8 240.5 264.8 232.5 259.8 361 185.8"/>
     <polygon points="232.5 259.8 240.5 264.8 240.5 403.8 240.5 403.8 236.5 406.3 232.5 403.8"/>
     <polygon points="240.5 403.8 361 473.8 361 473.8 361 478.3 357 480.8 236.5 410.8 236.5 406.3"/>
     <polygon points="361 478.3 361 473.8 482 403.8 482 403.8 490 408.8 365 480.8"/>
     <polygon points="486 262.3 486 257.8 610 185.8 610 185.8 610 195.3 490 264.8"/>
     <polygon points="610 185.8 691 232.8 691 232.8 687 239.8 610 195.3"/>
     <polygon points="236.5 406.3 236.5 410.8 152.5 459.3 152.5 459.3 148.5 452.3 232.5 403.8"/>
     <polygon points="361 478.3 365 480.8 365 576.3 365 576.3 357 576.3 357 480.8"/>
     <rect y="277.3" width="8" x="456" height="114"/>
     <rect transform="matrix(.4962 .8682 -.8682 .4962 373.07 -145.32)" height="114" width="8" y="191.9" x="307.7"/>
     <rect transform="matrix(.4959 -.8684 .8684 .4959 -207.39 482.31)" height="114" width="8" y="362.9" x="307.7"/>
     <rect y="98.3" width="8" x="593" height="99.5"/>
     <rect y="98.3" width="8" x="619" height="99.5"/>
     <g font-family="Arial">
      <g font-size="100px">
       <text y="301.29999" x="698.5">H</text>
       <text y="85.800003" x="571">O</text>
       <text y="516.79999" x="0">HO</text>
       <text y="660.79999" x="322">OCH</text>
      </g>
      <text font-size="75px" y="679.5" x="544.20001" class="small">3</text>
     </g>
    </g>
   </g>
   <g transform="matrix(.37526 0 0 .37526 524.91 831.05)" fill="#267bbd" sketch:type="MSPage">
    <path sketch:type="MSShapeGroup" d="m145.18 58.236v-2.948c0-0.274-0.137-0.411-0.411-0.411h-5.485c-5.075 0-7.132 1.439-7.132 4.457 0 2.743 1.989 4.113 5.76 4.113 4.457 0 7.268-1.714 7.268-5.211m9.6 7.475c0 2.056-1.646 3.565-3.84 3.565-1.371 0-2.468-0.48-3.223-1.577l-1.097-1.647h-0.068c-1.92 2.263-5.28 3.635-9.736 3.635-7.818 0-12-3.702-12-10.011 0-7.131 5.005-10.559 13.165-10.559h6.788c0.274 0 0.411-0.137 0.411-0.412v-0.823c0-3.839-2.193-6.101-7.404-6.101-2.332 0-4.595 0.685-6.035 1.371-0.686 0.273-1.372 0.41-1.989 0.41-1.85 0-3.155-1.233-3.155-3.152 0-1.099 0.55-2.332 1.922-3.018 2.125-1.234 5.554-2.263 10.078-2.263 9.396 0 13.852 4.664 13.852 12.822v10.423c0 1.715 0.206 2.4 0.685 3.291l1.028 1.782c0.412 0.755 0.618 1.51 0.618 2.264"/>
    <path sketch:type="MSShapeGroup" d="m181.27 58.442c0.479-1.44 0.686-3.428 0.686-6.034s-0.207-4.594-0.686-6.033c-1.028-3.155-3.223-4.389-6.103-4.389-2.948 0-5.142 1.234-6.17 4.389-0.48 1.439-0.686 3.427-0.686 6.033s0.206 4.594 0.686 6.034c1.028 3.154 3.222 4.388 6.17 4.388 2.88 0 5.075-1.234 6.103-4.388m-20.64 19.131v-37.987c0-2.538 1.577-4.045 3.841-4.045 2.262 0 3.496 1.371 3.84 3.496h0.068c1.577-2.262 4.251-3.908 8.914-3.908 5.486 0 9.599 3.154 11.314 8.365 0.823 2.537 1.166 5.211 1.166 8.914s-0.343 6.376-1.166 8.914c-1.715 5.21-5.828 8.365-11.314 8.365-4.663 0-7.473-1.782-8.914-3.908h-0.068v11.794c0 2.537-1.578 4.046-3.84 4.046-2.264 0-3.841-1.509-3.841-4.046"/>
    <path sketch:type="MSShapeGroup" d="m205.44 69.346c-6.721 0-9.053-3.36-9.053-9.669v-33.667c0-2.537 1.578-4.046 3.84-4.046 2.195 0 3.841 1.509 3.841 4.046v33.05c0 2.332 0.755 3.154 2.675 3.429 2.261 0.273 3.222 1.645 3.222 3.36 0 1.988-1.234 3.497-3.977 3.497h-0.548z"/>
    <path sketch:type="MSShapeGroup" d="m234.38 58.236v-2.948c0-0.274-0.137-0.411-0.41-0.411h-5.486c-5.075 0-7.131 1.439-7.131 4.457 0 2.743 1.988 4.113 5.759 4.113 4.456 0 7.268-1.714 7.268-5.211m9.601 7.475c0 2.056-1.647 3.565-3.841 3.565-1.371 0-2.468-0.48-3.223-1.577l-1.097-1.647h-0.068c-1.92 2.263-5.28 3.635-9.737 3.635-7.817 0-11.999-3.702-11.999-10.011 0-7.131 5.006-10.559 13.165-10.559h6.789c0.273 0 0.41-0.137 0.41-0.412v-0.823c0-3.839-2.194-6.101-7.405-6.101-2.331 0-4.594 0.685-6.035 1.371-0.684 0.273-1.37 0.41-1.987 0.41-1.852 0-3.155-1.233-3.155-3.152 0-1.099 0.55-2.332 1.921-3.018 2.125-1.234 5.554-2.263 10.079-2.263 9.395 0 13.851 4.664 13.851 12.822v10.423c0 1.715 0.206 2.4 0.685 3.291l1.028 1.782c0.413 0.755 0.619 1.51 0.619 2.264"/>
    <path sketch:type="MSShapeGroup" d="m251.89 68.934c-2.126 0-3.497-1.303-3.497-3.36 0-1.508 0.823-2.879 2.399-4.732l15.223-18.101v-0.137h-13.164c-2.194 0-3.497-1.44-3.497-3.359 0-1.92 1.303-3.361 3.497-3.361h19.473c2.125 0 3.498 1.303 3.498 3.361 0 1.507-0.756 2.878-2.401 4.798l-15.016 18.035v0.136h13.919c2.195 0 3.498 1.44 3.498 3.36s-1.303 3.36-3.498 3.36h-20.434z"/>
    <path sketch:type="MSShapeGroup" d="m300.74 58.236v-2.948c0-0.274-0.137-0.411-0.411-0.411h-5.485c-5.076 0-7.131 1.439-7.131 4.457 0 2.743 1.987 4.113 5.759 4.113 4.457 0 7.268-1.714 7.268-5.211m9.6 7.475c0 2.056-1.645 3.565-3.84 3.565-1.371 0-2.468-0.48-3.223-1.577l-1.097-1.647h-0.068c-1.92 2.263-5.28 3.635-9.736 3.635-7.819 0-12-3.702-12-10.011 0-7.131 5.005-10.559 13.165-10.559h6.788c0.274 0 0.411-0.137 0.411-0.412v-0.823c0-3.839-2.194-6.101-7.405-6.101-2.332 0-4.594 0.685-6.034 1.371-0.687 0.273-1.372 0.41-1.989 0.41-1.851 0-3.154-1.233-3.154-3.152 0-1.099 0.549-2.332 1.919-3.018 2.127-1.234 5.556-2.263 10.081-2.263 9.395 0 13.851 4.664 13.851 12.822v10.423c0 1.715 0.205 2.4 0.686 3.291l1.027 1.782c0.412 0.755 0.618 1.51 0.618 2.264"/>
    <path sketch:type="MSShapeGroup" d="m316.06 39.586c0-2.537 1.577-4.045 3.839-4.045 2.264 0 3.498 1.44 3.84 3.428h0.069c1.44-2.057 4.32-3.84 8.708-3.84 3.908 0 7.063 1.577 9.051 4.39h0.069c2.536-2.744 5.828-4.39 10.56-4.39 7.678 0 11.998 5.211 11.998 12.274v17.829c0 2.536-1.576 4.044-3.838 4.044-2.264 0-3.841-1.508-3.841-4.044v-16.046c0-4.25-2.126-7.2-6.239-7.2-3.978 0-6.31 2.95-6.31 7.2v16.046c0 2.536-1.576 4.044-3.839 4.044-2.262 0-3.839-1.508-3.839-4.044v-16.046c0-4.25-2.127-7.2-6.24-7.2-3.977 0-6.309 2.95-6.309 7.2v16.046c0 2.536-1.576 4.044-3.84 4.044-2.262 0-3.839-1.508-3.839-4.044v-25.646z"/>
    <path sketch:type="MSShapeGroup" d="m391.7 45.894c-0.892-2.674-3.36-4.252-6.445-4.252-3.156 0-5.623 1.578-6.514 4.252-0.274 0.822-0.412 1.646-0.412 2.811 0 0.275 0.138 0.412 0.412 0.412h12.959c0.273 0 0.411-0.137 0.411-0.412 0-1.165-0.138-1.989-0.411-2.811m-19.954 14.605c-0.686-2.126-1.165-4.663-1.165-8.091s0.411-6.034 1.097-8.16c1.852-5.759 6.925-9.12 13.508-9.12 6.787 0 11.725 3.497 13.577 9.12 0.685 2.195 1.096 4.8 1.096 7.955 0 1.576-0.959 2.673-2.673 2.673h-18.445c-0.274 0-0.412 0.138-0.412 0.412 0 0.96 0.206 1.783 0.479 2.537 1.098 3.221 3.704 5.005 7.475 5.005 2.812 0 4.663-0.822 6.788-2.262 0.893-0.617 1.783-1.097 2.813-1.097 1.988 0 3.222 1.37 3.222 3.223 0 1.303-0.55 2.193-1.578 3.016-2.949 2.4-6.582 3.977-11.931 3.977-7.062 0-12-3.429-13.851-9.188"/>
    <path d="m93.828 37.741c1.84-2.722 1.123-6.422-1.6-8.263-2.722-1.84-6.422-1.123-8.262 1.601-3.951 5.847-9.155 10.559-15.119 13.887-0.118-0.3-16.006-40.802-16.006-40.802-0.857-2.164-2.959-3.696-5.461-3.732-2.26-0.012-4.485 1.216-5.552 3.658l-14.633 35.094c3.393 2.079 7.096 3.633 10.984 4.585l8.972-21.521 10.614 27.061c-3.381 0.822-6.883 1.253-10.445 1.253-14.49 0-28.076-7.119-36.338-19.043-1.873-2.701-5.581-3.374-8.281-1.502-2.702 1.871-3.373 5.58-1.503 8.281 10.486 15.131 27.729 24.165 46.122 24.165 5.074 0 10.052-0.687 14.822-1.993l15.421 39.319c1.206 3.075 4.671 4.559 7.713 3.367 3.061-1.2 4.567-4.652 3.367-7.713l-15.42-39.316c8.166-4.25 15.284-10.508 20.605-18.386zm-80.022 33.558c-1.267 3.034 0.167 6.518 3.201 7.784 3.019 1.259 6.512-0.158 7.782-3.204l4.364-10.466c-3.806-1.172-7.484-2.711-10.983-4.584l-4.364 10.47z" sketch:type="MSShapeGroup"/>
   </g>
   <text style="word-spacing:0px;letter-spacing:0px" xml:space="preserve" font-size="19.592px" line-height="125%" y="891.5697" x="524.17725" font-family="&apos;Droid Sans Mono&apos;" fill="#000000"><tspan x="524.17725" y="891.5697">vanilla-tools</tspan></text>
  </g>
 </g>
 <style type="text/css"><![CDATA[
   text {font-family: Arial; font-size: 100px}
   .small {font-size: 75px}
]]></style>
</svg>
